<?xml version="1.0" encoding="utf-8"?>
<!-- Generator: Adobe Illustrator 25.2.0, SVG Export Plug-In . SVG Version: 6.00 Build 0)  -->
<svg version="1.1" id="Layer_1" xmlns="http://www.w3.org/2000/svg" xmlns:xlink="http://www.w3.org/1999/xlink" x="0px" y="0px"
	 viewBox="0 0 664.49 785.25" style="enable-background:new 0 0 664.49 785.25;" xml:space="preserve">
<style type="text/css">
	.st0{opacity:0.37;}
	.st1{fill:url(#SVGID_1_);}
	.st2{fill:url(#SVGID_2_);}
</style>
<g class="st0">
	
		<linearGradient id="SVGID_1_" gradientUnits="userSpaceOnUse" x1="1557.6306" y1="-176.4395" x2="139.3759" y2="780.0579" gradientTransform="matrix(-1 0 0 -1 1054.5319 741.84)">
		<stop  offset="0" style="stop-color:#029AFE"/>
		<stop  offset="1" style="stop-color:#02FFFE"/>
	</linearGradient>
	<path class="st1" d="M439.09,390.17c-26.58-25.96-52.4-51.22-78.28-76.43c-36.31-35.37-72.67-70.69-109-106.05
		c-15.65-15.23-31.38-30.37-46.84-45.79c-27.25-27.17-35.05-68.73-19.87-104.47c14.99-35.3,50.16-57.88,88.73-57.41
		c25.62,0.31,47.53,9.37,65.76,27.09c54.9,53.34,109.64,106.84,164.46,160.26c44.21,43.08,88.16,86.43,132.76,129.1
		c35.94,34.38,37.31,106.28,1.6,142.48c-60.63,61.45-120.57,123.58-180.78,185.44c-35.88,36.86-71.54,73.95-107.65,110.59
		c-27.44,27.85-60.78,37-97.95,25.3c-36.9-11.61-59.23-37.99-65.35-76.28c-4.97-31.09,4.13-58.71,26.2-81.45
		c56.98-58.7,114.15-117.21,171.23-175.82C402.3,428.06,420.45,409.34,439.09,390.17z"/>
	
		<linearGradient id="SVGID_2_" gradientUnits="userSpaceOnUse" x1="1604.1003" y1="-107.536" x2="185.8457" y2="848.9614" gradientTransform="matrix(-1 0 0 -1 1054.5319 741.84)">
		<stop  offset="0" style="stop-color:#029AFE"/>
		<stop  offset="1" style="stop-color:#02FFFE"/>
	</linearGradient>
	<path class="st2" d="M255.45,392.77c-0.08,71.16-56.91,127.52-128.57,127.36C53.9,519.97-1.53,458.08,0.03,389.26
		c1.55-67.95,58.47-124.95,127.72-124.98C198.67,264.25,255.53,321.47,255.45,392.77z"/>
</g>
</svg>
