<?xml version="1.0" encoding="utf-8"?>
<!-- Generator: Adobe Illustrator 25.2.0, SVG Export Plug-In . SVG Version: 6.00 Build 0)  -->
<svg version="1.1" id="Layer_1" xmlns="http://www.w3.org/2000/svg" xmlns:xlink="http://www.w3.org/1999/xlink" x="0px" y="0px"
	 viewBox="0 0 295.35 208.83" style="enable-background:new 0 0 295.35 208.83;" xml:space="preserve">
<style type="text/css">
	.st0{opacity:0.37;fill:url(#SVGID_1_);}
	.st1{opacity:0.37;fill:url(#SVGID_2_);}
	.st2{opacity:0.37;fill:url(#SVGID_3_);}
	.st3{fill:#FFFFFF;}
	.st4{fill:url(#SVGID_4_);}
</style>
<linearGradient id="SVGID_1_" gradientUnits="userSpaceOnUse" x1="19.7771" y1="98.6485" x2="194.2157" y2="98.6485">
	<stop  offset="0" style="stop-color:#029AFE"/>
	<stop  offset="1" style="stop-color:#02FFFE"/>
</linearGradient>
<circle class="st0" cx="107" cy="98.65" r="87.22"/>
<linearGradient id="SVGID_2_" gradientUnits="userSpaceOnUse" x1="19.7771" y1="109.5193" x2="194.2157" y2="109.5193">
	<stop  offset="0" style="stop-color:#029AFE"/>
	<stop  offset="1" style="stop-color:#02FFFE"/>
</linearGradient>
<circle class="st1" cx="107" cy="109.52" r="87.22"/>
<linearGradient id="SVGID_3_" gradientUnits="userSpaceOnUse" x1="13.7491" y1="102.6999" x2="188.1877" y2="102.6999">
	<stop  offset="0" style="stop-color:#029AFE"/>
	<stop  offset="1" style="stop-color:#02FFFE"/>
</linearGradient>
<circle class="st2" cx="100.97" cy="102.7" r="87.22"/>
<g>
	<path class="st3" d="M58.19,101.73l-0.34,0.77c0.17,0.06,0.36,0.07,0.56,0.04c0.2-0.03,0.41-0.04,0.64-0.04l4.46-0.77
		c0.06-0.06,0.18-0.07,0.39-0.04c0.2,0.03,0.33,0.16,0.39,0.39v0.26c0,0.23-0.17,0.4-0.51,0.51l-6.6,1.46
		c-0.23,0.69-0.34,1.06-0.34,1.11l-1.37,3.34c0,0.12-0.14,0.43-0.43,0.94l-3.69,7.71c-0.34,0.8-0.69,1.54-1.03,2.23
		s-0.63,1.29-0.86,1.8c-0.29,0.8-0.86,1.83-1.71,3.08c-0.34,0.51-0.74,0.77-1.2,0.77l-0.69-0.17c-0.29-0.11-0.66-0.34-1.11-0.69
		c-0.86-0.63-1.29-1.34-1.29-2.14c0-0.23,0.11-0.74,0.34-1.54l1.54-4.46c0.11-0.46,0.83-2.8,2.14-7.03
		c0.29-1.14,0.57-2.17,0.86-3.08l0.17-0.51l-5.83,0.94l-2.49,3.51l-3.26,4.29l-2.31,3.26l-0.69,0.77c-0.11,0.12-0.29,0.12-0.51,0
		c-0.17,0-0.26-0.14-0.26-0.43c0.12-0.46,0.23-0.8,0.34-1.03c0.46-1.14,1.23-2.51,2.31-4.11l3.6-5.48l-0.51,0.09
		c-1.03,0.34-1.94,0.57-2.74,0.69c-0.23,0.06-0.6,0.08-1.11,0.08c-0.06,0-0.14-0.06-0.26-0.17l0.09-0.34
		c0.69-0.4,1.09-0.63,1.2-0.69l3.86-1.2l0.17-0.08c0.23,0,0.37-0.03,0.43-0.09l1.11-1.63c1.2-1.89,2.34-3.63,3.43-5.23
		c1.94-2.74,4.76-7.47,8.44-14.18c3.68-6.71,5.7-10.41,6.04-11.1l0.86-1.63c0.06-0.06,0.3-0.46,0.73-1.2
		c0.43-0.74,0.78-1.34,1.07-1.8l1.03-1.71l0.34-0.09l0.69,0.17c0.17,0,0.53-0.04,1.07-0.13c0.54-0.09,0.9-0.04,1.07,0.13
		c0.46,0.51,0.69,1.29,0.69,2.31c0,0.91-0.16,1.96-0.47,3.13c-0.31,1.17-0.5,1.9-0.56,2.18c-0.57,2.17-1.31,5.04-2.23,8.61
		c-0.91,3.57-1.69,6.44-2.31,8.61C60.56,95.22,59.45,98.42,58.19,101.73z M55.02,86.22c-0.86,1.49-2.47,4.29-4.84,8.4
		c-2.37,4.11-4.16,7.03-5.36,8.74c-0.06,0.17-0.12,0.3-0.17,0.38c-0.06,0.09-0.12,0.16-0.17,0.21l-0.69,1.03
		c0.51-0.17,0.91-0.26,1.2-0.26c0.51-0.06,1.14-0.17,1.89-0.34c0.74-0.17,1.51-0.31,2.31-0.43l0.26-0.77l1.11-2.83
		C53.59,91.51,55.08,86.79,55.02,86.22z"/>
	<path class="st3" d="M94.1,76.41c0.4,0.54,0.54,1.13,0.43,1.76l-0.17,1.2c-0.29,0.97-0.69,2.06-1.2,3.26
		c-0.69,1.54-1.51,3.14-2.48,4.8c-0.51,0.86-2.51,3.74-6,8.66c-1.03,1.94-1.66,3.08-1.89,3.43l-3.43,5.91l-2.66,4.37
		c-0.63,1.14-0.97,2.2-1.03,3.17v0.26c-0.06,0.57,0.09,0.86,0.43,0.86c0.46,0,1.08-0.31,1.89-0.94c0.8-0.63,1.49-1.23,2.06-1.8
		c1.14-1.14,2.43-2.63,3.86-4.46c0.86-1.14,1.74-2.2,2.66-3.17l1.46-1.63c0.17-0.17,0.31-0.23,0.43-0.17
		c0.11,0.06,0.2,0.23,0.26,0.51v0.17c0,0.23-0.07,0.44-0.21,0.64c-0.14,0.2-0.24,0.33-0.3,0.39l-0.51,0.69l-6.86,8.23
		c-0.12,0.12-0.17,0.2-0.17,0.26c-0.69,0.74-1.49,1.49-2.4,2.23c-0.69,0.51-1.4,0.77-2.14,0.77c-0.57,0-1.09-0.11-1.54-0.34
		c-0.74-0.4-1.23-1-1.46-1.8c-0.06-0.06-0.09-0.2-0.09-0.43c-2.86,3.08-5.4,4.77-7.63,5.06c-0.8,0.12-1.4,0.14-1.8,0.09
		c-0.34-0.06-0.8-0.2-1.37-0.43c-0.74-0.34-1.26-1.06-1.54-2.14c-0.23-0.86-0.34-1.83-0.34-2.91c0-0.46,0.06-1.31,0.17-2.57
		c0.17-1.14,0.66-3.08,1.46-5.83c0.91-3.08,2.08-6.14,3.51-9.17l6.08-13.37l4.28-9c0.97-1.77,1.91-3.26,2.83-4.46l1.2-1.11
		c0.51-0.51,0.97-0.6,1.37-0.26c0.11,0.06,0.31,0.09,0.6,0.09c0.11,0,0.29,0.06,0.51,0.17c1.03,0.69,1.54,2.17,1.54,4.46
		c0,1.32-0.2,2.57-0.6,3.77c-0.4,1.2-1.14,2.83-2.23,4.88c-0.23,0.51-1.83,3.14-4.8,7.88l-1.11,1.71l-3.77,7.8
		c-0.91,1.94-1.89,3.8-2.91,5.57l-0.94,1.8l-2.91,5.66c-0.8,1.71-1.2,3.11-1.2,4.2c0,1.09,0.54,1.63,1.63,1.63
		c0.34,0,0.77-0.09,1.29-0.26c1.54-0.4,3.66-2.14,6.34-5.23c0-0.4,0.06-1.06,0.17-1.97c0.23-1.37,0.63-2.91,1.2-4.63
		c0.69-2.06,1.74-4.51,3.17-7.37l5.48-10.63l3.86-7.11c0.74-1.37,1.6-2.54,2.57-3.51l1.11-0.94c0.34-0.17,0.74-0.23,1.2-0.17
		l0.6,0.09c0.17,0,0.31,0.06,0.43,0.17C93.15,75.45,93.7,75.87,94.1,76.41z M77.99,83.99c2.11-3.6,3.26-5.63,3.43-6.08
		c1.08-2.23,1.63-4.25,1.63-6.08l-0.09-1.03c-0.23,1.09-0.74,2.66-1.54,4.71l-0.69,1.8C80.04,79.19,79.13,81.42,77.99,83.99z
		 M93.67,77.91c0-0.29-0.09-0.6-0.26-0.94l-0.17,0.6c-0.17,1.03-0.51,2.13-1.03,3.3c-0.51,1.17-0.86,1.93-1.03,2.27
		c-0.74,1.94-1.71,4.03-2.91,6.26l2.83-4.54c0.86-1.6,1.57-3.31,2.14-5.14l0.34-1.29L93.67,77.91z"/>
	<path class="st3" d="M126.4,100.96l-0.69,2.14l-0.6,0.26l-6.77,3.26c-0.51,0.23-0.86,0.66-1.03,1.29
		c-2.11,6-5.69,11.37-10.71,16.11c-1.94,1.83-4.54,3.8-7.8,5.91c-1.94,1.26-4.31,2.11-7.11,2.57c-0.23,0.06-0.63,0.09-1.2,0.09
		h-2.06c-0.69,0-1.24-0.2-1.67-0.6c-0.43-0.4-0.61-0.94-0.56-1.63c0-1.48,0.29-2.66,0.86-3.51c1.14-1.6,1.83-2.51,2.06-2.74
		c1.48-1.71,3.37-3.51,5.66-5.4c1.66-1.31,4.26-3.11,7.8-5.4c2.17-1.37,3.8-2.37,4.88-3c0.69-0.4,1.17-0.86,1.46-1.37
		c1.83-2.91,3.46-6.05,4.88-9.43c0.17-0.51,0.26-0.8,0.26-0.86l0.09-0.34c0-0.69-0.31-1.11-0.94-1.29
		c-0.34-0.06-0.86-0.09-1.54-0.09l-2.4,0.09c-0.34,0-0.8-0.06-1.37-0.17c-0.63-0.11-0.89-0.51-0.77-1.2
		c0.17-0.57,0.29-0.94,0.34-1.11c1.08-2.68,2.34-5,3.77-6.94l2.57-3.77c1.77-2.51,3.23-5.28,4.37-8.31
		c0.06-0.23,0.14-0.48,0.26-0.77c0.11-0.29,0.2-0.63,0.26-1.03c0.06-0.17,0.09-0.43,0.09-0.77c0-1.08-0.57-1.89-1.71-2.4
		c-0.4-0.23-0.89-0.34-1.46-0.34c-0.29,0-0.51,0.03-0.69,0.09c-1.83,0.23-3.2,0.46-4.11,0.69c-3.31,0.86-6.91,2.09-10.8,3.68
		l-6.68,2.66c-1.14,0.46-2.06,1.09-2.74,1.89l-0.6,0.43c-0.06,0.06-0.14,0.06-0.26,0c-0.06-0.06-0.09-0.14-0.09-0.26l1.03-1.2
		c0.17-0.23,0.37-0.46,0.6-0.69c0.23-0.23,0.46-0.49,0.69-0.77c0.86-0.97,1.89-1.86,3.08-2.66c2-1.37,4.63-2.77,7.88-4.2
		c2.51-1.08,4.71-1.86,6.6-2.31c1.77-0.46,3.77-0.69,6-0.69c0.74,0,1.86,0.06,3.34,0.17c2.11,0.29,3.83,1.2,5.14,2.74l0.43,0.43
		c1.08,1.09,1.63,2.4,1.63,3.94c0,0.34-0.06,0.86-0.17,1.54c-0.46,2.86-1.86,5.54-4.2,8.06c-1.26,1.31-3.03,2.86-5.31,4.63
		l-3.6,2.83c-0.34,0.23-1.2,1.06-2.57,2.49c-0.12,0.12-0.4,0.57-0.86,1.37c0,0.17,0.06,0.26,0.17,0.26h1.46
		c0.8-0.11,1.4-0.17,1.8-0.17c0.46,0,1.03,0.06,1.71,0.17c1.71,0.4,2.97,1.37,3.77,2.91c0.23,0.51,0.34,1.17,0.34,1.97
		c0,0.74-0.06,1.8-0.17,3.17l-0.09,0.69c0.11,0.12,0.2,0.17,0.26,0.17l0.34-0.17C121.98,102.62,124.46,101.59,126.4,100.96z
		 M92.64,112.53c-0.29,0.12-0.77,0.34-1.46,0.69s-1.37,0.57-2.06,0.69c-0.34,0.06-0.71,0.2-1.11,0.43c-0.06,0-0.26,0.09-0.6,0.26
		c-0.34,0.17-0.57,0.09-0.69-0.26c0-0.4-0.03-0.71-0.09-0.94v-0.34c0-0.51,0.11-0.97,0.34-1.37c0.69-1.2,1.54-3.05,2.57-5.57
		c1.03-2.46,2.14-4.94,3.34-7.46c1.26-2.4,2.43-5.2,3.51-8.4c1.2-3.31,2.37-6.14,3.51-8.48c0.23-0.57,0.43-1,0.6-1.29
		c0.23-0.46,0.6-0.69,1.11-0.69c0.11,0,0.24-0.04,0.39-0.13c0.14-0.08,0.27-0.16,0.39-0.21c0.4-0.23,0.77-0.29,1.11-0.17l1.46,0.6
		c0.11,0.06,0.19,0.13,0.21,0.21c0.03,0.09,0.07,0.16,0.13,0.21v1.46c-0.06,1.49-0.34,3.29-0.86,5.4c-0.8,4.28-2.6,9.05-5.4,14.31
		c-0.8,1.37-1.43,2.4-1.89,3.08l-1.2,1.97c-0.8,1.26-1.69,2.91-2.66,4.97l-0.26,0.6C92.95,112.27,92.81,112.42,92.64,112.53z
		 M104.47,115.1c-0.23,0-0.37,0.03-0.43,0.08c-3.71,2.51-6.68,4.91-8.91,7.2c-1.31,1.32-2.31,2.49-3,3.51
		c-0.29,0.4-0.51,0.8-0.69,1.2v0.17c0.06,0,0.11,0.01,0.17,0.04c0.06,0.03,0.11,0.01,0.17-0.04l0.26-0.26
		c3.31-2.63,6.08-5.06,8.31-7.28c0.86-0.86,1.63-1.71,2.31-2.57l1.54-1.63L104.47,115.1z"/>
	<path class="st3" d="M146.46,72.68c0,2.91-0.86,6.08-2.57,9.51c-1.43,3.03-3.49,6.11-6.17,9.25c-0.23,0.29-0.49,0.66-0.77,1.11
		c-0.29,0.46-0.51,0.83-0.69,1.11c-0.8,1.37-1.67,2.94-2.61,4.71c-0.94,1.77-1.9,3.54-2.87,5.31c-0.63,1.26-1.63,3.17-3,5.74
		c-0.46,0.8-0.94,1.83-1.46,3.08c0.57-0.4,1.43-1.11,2.57-2.14c1.31-1.26,2.83-2.88,4.54-4.88l2.31-2.48l1.54-1.46
		c0.29-0.29,0.51-0.17,0.69,0.34v0.09c0,0.23-0.09,0.46-0.26,0.69c-0.17,0.23-0.29,0.37-0.34,0.43c-0.17,0.12-0.29,0.23-0.34,0.34
		c-0.06,0.12-0.11,0.2-0.17,0.26l-7.28,7.97c-0.69,0.74-1.57,1.51-2.66,2.31c-0.06,0.06-0.27,0.21-0.64,0.47
		c-0.37,0.26-0.73,0.36-1.07,0.3c-0.4,0-0.83-0.16-1.29-0.47c-0.46-0.31-0.74-0.64-0.86-0.99c-0.23-0.51-0.34-1.08-0.34-1.71
		c0-0.86,0.36-2.26,1.07-4.2c0.71-1.94,1.81-4.8,3.3-8.57c0.63-1.66,1.44-3.48,2.44-5.48c1-2,1.64-3.29,1.93-3.86l1.2-2.4l2.48-5.23
		c1.54-3.2,2.8-5.66,3.77-7.37l2.23-4.71c0.06-0.11,0.37-0.76,0.94-1.93c0.57-1.17,1.08-1.73,1.54-1.67
		c0.57,0.06,1.03,0.43,1.37,1.11C145.97,69.05,146.46,70.85,146.46,72.68z M145.43,72.17v-1.11l-0.26-0.43L145,70.97
		c0,0.23-0.03,0.43-0.09,0.6c-0.23,1.54-0.43,2.6-0.6,3.17c-0.23,1.2-0.56,2.37-0.99,3.51c-0.43,1.14-1.02,2.54-1.76,4.2L139,87.76
		l-0.26,0.51v0.26c0.11,0,0.17-0.03,0.17-0.09l0.34-0.34c1.89-2.4,3.46-5.11,4.71-8.14c0.91-1.94,1.4-3.91,1.46-5.91V72.17z"/>
	<path class="st3" d="M152.41,104c0.54-0.89,0.87-1.38,0.99-1.5c0.23-0.23,0.48-0.34,0.77-0.34c0.51,0,0.77,0.23,0.77,0.69
		l-0.17,0.69c-0.63,1.09-1.14,1.92-1.54,2.49c-0.4,0.57-0.97,1.23-1.71,1.97l-1.88,1.54c-0.69,0.46-1.52,0.69-2.49,0.69h-0.86
		c-0.34-0.06-0.66-0.21-0.94-0.47c-0.29-0.26-0.43-0.44-0.43-0.56c-0.51-0.57-0.71-1.54-0.6-2.91c0.06-0.06,0.07-0.11,0.04-0.17
		c-0.03-0.06-0.04-0.11-0.04-0.17h-0.17l-0.43,0.43l-2.83,2.83c-0.69,0.8-1.74,1.14-3.17,1.03h-0.34c-1.31-0.11-2-0.74-2.06-1.89
		v-1.2c0.17-0.91,0.66-2.37,1.46-4.37c0.11-0.17,0.41-0.8,0.9-1.88c0.48-1.08,0.81-1.74,0.99-1.97c0.29-0.29,0.57-0.43,0.86-0.43
		c0.17-0.06,0.34-0.06,0.51,0c0.17,0.06,0.29,0.09,0.34,0.09h0.17c0.4,0,0.77,0.17,1.11,0.51c0.11,0.12,0.3,0.21,0.56,0.3
		c0.26,0.09,0.44,0.21,0.56,0.39c0.06,0.12,0.09,0.27,0.09,0.47s-0.03,0.36-0.09,0.47c0,0.29-0.06,0.56-0.17,0.81
		c-0.12,0.26-0.2,0.44-0.26,0.56c-0.12,0.46-0.4,1.14-0.86,2.06c-0.46,0.86-0.71,1.43-0.77,1.71l-0.09,0.51v0.09l0.17,0.08
		l0.43-0.34l1.89-1.8c0.4-0.4,1-1.03,1.8-1.89c0.8-0.86,1.43-1.66,1.89-2.4c0.29-0.34,0.66-0.51,1.11-0.51
		c0.34,0.06,0.61,0.2,0.81,0.43c0.2,0.23,0.27,0.49,0.21,0.77c-0.06,0.23-0.13,0.56-0.21,0.99c-0.09,0.43-0.19,0.79-0.3,1.07
		c-0.12,0.46-0.29,1.11-0.51,1.97c-0.23,0.86-0.49,1.57-0.77,2.14l-0.17,0.69c-0.06,0.29-0.06,0.63,0,1.03
		c0.63,0,1.08-0.09,1.37-0.26c0.97-0.69,1.74-1.37,2.31-2.06C151.28,105.67,151.87,104.89,152.41,104z"/>
	<path class="st3" d="M154.17,109.79c-1.31,0-2.29-0.3-2.91-0.9c-0.63-0.6-0.83-1.3-0.6-2.1c0.29-0.91,0.57-1.74,0.86-2.49
		c0.63-1.6,1.34-2.97,2.14-4.11c1.14-1.54,2.6-2.68,4.37-3.43c0.57-0.29,1.11-0.43,1.63-0.43h0.43c0.91,0.12,1.37,0.49,1.37,1.11
		v0.17c0,0.4-0.09,0.77-0.26,1.11c-0.46,1.2-1.17,2.2-2.14,3c-0.8,0.69-1.43,1.17-1.88,1.46c-0.4,0.4-0.63,0.74-0.69,1.03
		c-0.06,0.23-0.13,0.51-0.21,0.86s-0.13,0.6-0.13,0.77c-0.06,0.51,0.23,0.77,0.86,0.77h0.34c0.23,0,1.49-0.71,3.77-2.14
		c2.63-1.71,4.11-2.57,4.46-2.57c0.06,0,0.18-0.06,0.39-0.17c0.2-0.11,0.41-0.06,0.64,0.17c0.23,0.17,0.14,0.46-0.26,0.86
		l-2.91,1.97l-2.31,1.54c-1.2,0.74-2.46,1.57-3.77,2.49c-0.57,0.46-1.2,0.74-1.88,0.86C154.77,109.73,154.34,109.79,154.17,109.79z
		 M160.17,98.3l-0.09-0.17h-0.17c-0.69,0.8-1.17,1.43-1.46,1.88c-0.06,0.06-0.2,0.23-0.43,0.51c-0.23,0.29-0.34,0.57-0.34,0.86v0.17
		c0.17-0.11,0.39-0.3,0.64-0.56c0.26-0.26,0.47-0.5,0.64-0.73l1.03-1.63L160.17,98.3z"/>
</g>
<path class="st3" d="M86.1,125.14c-5.27,0.53-10.52,1.21-15.76,2.01c-10.75,1.72-21.46,3.91-31.97,6.99
	c10.11-4.26,20.79-7.12,31.56-9.28c5.39-1.11,10.84-1.87,16.3-2.57c0.7-0.08,1.39-0.16,2.09-0.23
	C88.32,122.05,86.6,123.63,86.1,125.14z"/>
<path class="st3" d="M111.49,120.87c2.57,0.02,5.15,0.07,7.72,0.18c5.5,0.28,10.99,0.7,16.45,1.44c10.91,1.44,21.69,3.83,32.07,7.39
	c-10.7-2.35-21.48-4.07-32.32-5.06c-8.74-0.77-17.51-1.12-26.27-0.99C109.12,123.82,110.84,122.62,111.49,120.87z"/>
<linearGradient id="SVGID_4_" gradientUnits="userSpaceOnUse" x1="165.0519" y1="99.492" x2="282.157" y2="99.492">
	<stop  offset="0" style="stop-color:#FFFFFF"/>
	<stop  offset="0.5642" style="stop-color:#02FFFE"/>
	<stop  offset="1" style="stop-color:#029AFE"/>
</linearGradient>
<path class="st4" d="M165.05,102.11c4.31-2.82,8.88-5.11,13.69-6.86c4.8-1.72,9.92-2.86,15.09-2.52c1.29,0.1,2.57,0.27,3.83,0.58
	c1.27,0.31,2.48,0.73,3.66,1.18c2.39,0.88,4.73,1.88,7.04,2.91c4.63,2.06,9.2,4.24,13.98,5.84c4.77,1.61,9.77,2.59,14.81,2.61
	c2.52,0.01,5.04-0.19,7.53-0.58c2.49-0.41,4.98-0.87,7.47-1.32l14.93-2.78c2.49-0.45,4.99-0.89,7.49-1.24
	c2.5-0.33,5.04-0.69,7.57-0.42c-2.53-0.24-5.06,0.14-7.56,0.5c-2.5,0.38-4.99,0.85-7.48,1.32l-14.9,2.94
	c-2.49,0.48-4.97,0.97-7.47,1.41c-2.51,0.42-5.05,0.66-7.59,0.67c-5.1,0.04-10.18-0.9-15.01-2.48c-4.85-1.56-9.47-3.7-14.11-5.71
	c-2.32-1-4.65-1.97-7.02-2.82c-1.19-0.43-2.38-0.83-3.57-1.11c-1.2-0.28-2.44-0.44-3.68-0.52c-4.97-0.27-9.95,0.89-14.64,2.62
	c-4.68,1.75-9.21,4.09-13.34,6.86L165.05,102.11z"/>
</svg>
